<?xml version="1.0" standalone="no"?>
<!DOCTYPE svg PUBLIC "-//W3C//DTD SVG 20010904//EN"
 "http://www.w3.org/TR/2001/REC-SVG-20010904/DTD/svg10.dtd">
<svg version="1.0" xmlns="http://www.w3.org/2000/svg"
 width="649.000000pt" height="649.000000pt" viewBox="0 0 649.000000 649.000000"
 preserveAspectRatio="xMidYMid meet">
<metadata>
Created by potrace 1.11, written by Peter Selinger 2001-2013
</metadata>
<g transform="translate(0.000000,649.000000) scale(0.100000,-0.100000)"
fill="#000000" stroke="none">
<path d="M3643 6473 c-17 -10 -57 -47 -88 -83 -70 -81 -115 -121 -184 -166
l-54 -35 -33 32 -34 33 -44 -43 -44 -43 -63 51 c-114 92 -399 221 -487 221
-76 0 -132 -60 -132 -142 0 -40 7 -56 53 -121 13 -17 21 -56 27 -121 11 -109
28 -181 72 -302 16 -47 27 -88 24 -92 -4 -3 -45 -14 -91 -23 -47 -10 -118 -33
-158 -52 -39 -20 -92 -39 -117 -43 -66 -10 -171 -47 -231 -82 l-53 -30 -201
193 c-110 106 -219 202 -242 214 -87 44 -189 21 -303 -70 -155 -122 -270 -286
-270 -383 0 -54 44 -128 133 -221 l85 -91 -67 -34 c-127 -66 -244 -209 -285
-349 -37 -125 -14 -324 48 -426 23 -38 24 -40 7 -65 -43 -61 -55 -112 -56
-228 l-1 -113 -367 -367 -367 -367 189 -189 189 -189 7 -101 c26 -396 138
-668 338 -820 33 -26 37 -33 37 -75 0 -59 34 -163 71 -217 40 -59 110 -113
213 -165 76 -38 97 -44 150 -44 138 0 217 96 188 230 -10 50 -10 50 27 88 l37
38 838 -842 838 -842 327 324 c179 178 560 557 846 841 l520 517 33 -39 c31
-37 32 -41 22 -86 -35 -156 93 -266 256 -219 80 23 136 61 214 143 65 69 150
212 150 253 0 18 9 19 180 19 l180 0 0 483 0 482 200 200 c110 110 200 204
200 210 0 6 -90 100 -200 210 l-200 200 0 137 0 138 -138 0 -138 0 -48 49 -48
49 25 34 c43 56 57 101 57 180 -1 120 -42 198 -125 238 -28 13 -45 28 -45 39
0 10 -14 45 -31 79 -70 140 -226 212 -388 178 -38 -8 -86 -23 -107 -34 -35
-18 -41 -18 -62 -5 -22 15 -18 20 281 322 387 392 397 409 320 562 -49 99
-226 278 -322 327 -78 39 -151 43 -217 11 -28 -13 -154 -130 -359 -331 l-316
-311 -34 33 c-19 19 -35 37 -35 42 0 4 52 76 116 160 117 153 144 198 144 240
0 36 -38 102 -69 121 -34 20 -106 22 -141 4 -21 -11 -33 -11 -70 2 -30 9 -93
14 -193 15 -116 1 -146 4 -142 14 2 7 10 54 16 105 14 112 7 226 -21 343 -34
145 -78 202 -161 211 -31 3 -54 -1 -76 -14z m-1949 -2831 c3 -5 -1 -9 -9 -9
-8 0 -12 4 -9 9 3 4 7 8 9 8 2 0 6 -4 9 -8z m43 2 c-3 -3 -12 -4 -19 -1 -8 3
-5 6 6 6 11 1 17 -2 13 -5z m40 0 c-3 -3 -12 -4 -19 -1 -8 3 -5 6 6 6 11 1 17
-2 13 -5z m44 -11 c13 -17 13 -17 -6 -3 -11 8 -22 16 -24 17 -2 2 0 3 6 3 6 0
17 -8 24 -17z m36 11 c-3 -3 -12 -4 -19 -1 -8 3 -5 6 6 6 11 1 17 -2 13 -5z
m157 -2 c3 -5 -1 -9 -9 -9 -8 0 -12 4 -9 9 3 4 7 8 9 8 2 0 6 -4 9 -8z m43 2
c-3 -3 -12 -4 -19 -1 -8 3 -5 6 6 6 11 1 17 -2 13 -5z m63 2 c0 -7 -40 -14
-44 -7 -3 4 6 8 20 9 13 1 24 0 24 -2z m53 -3 c-7 -2 -21 -2 -30 0 -10 3 -4 5
12 5 17 0 24 -2 18 -5z m47 -3 c0 -5 -7 -7 -15 -4 -8 4 -15 8 -15 10 0 2 7 4
15 4 8 0 15 -4 15 -10z m280 -1 c0 -6 -4 -8 -9 -4 -5 3 -12 1 -16 -5 -3 -5
-12 -10 -18 -10 -7 0 -6 4 3 10 13 8 13 10 -2 10 -9 0 -20 -5 -23 -10 -4 -6
-11 -7 -17 -4 -18 11 -102 11 -110 0 -4 -6 -11 -6 -20 2 -8 6 -19 7 -28 2 -8
-5 -18 -6 -22 -4 -25 15 6 20 127 21 83 1 135 -2 135 -8z m150 -6 c-14 -9 -29
-22 -33 -27 -5 -6 -6 -2 -3 9 5 17 1 20 -17 20 -13 -1 -28 -5 -35 -9 -7 -4
-12 -2 -12 5 0 8 -3 9 -13 0 -14 -11 -27 -6 -27 11 0 4 37 8 82 8 81 0 82 0
58 -17z m2644 8 c4 -5 -3 -7 -14 -4 -23 6 -26 13 -6 13 8 0 17 -4 20 -9z m56
-1 c0 -5 -5 -10 -11 -10 -5 0 -7 5 -4 10 3 6 8 10 11 10 2 0 4 -4 4 -10z m67
4 c-3 -3 -12 -4 -19 -1 -8 3 -5 6 6 6 11 1 17 -2 13 -5z m63 0 c0 -8 -19 -13
-24 -6 -3 5 1 9 9 9 8 0 15 -2 15 -3z m337 0 c-3 -3 -12 -4 -19 -1 -8 3 -5 6
6 6 11 1 17 -2 13 -5z m-3827 -134 c0 -5 -5 -10 -11 -10 -5 0 -7 5 -4 10 3 6
8 10 11 10 2 0 4 -4 4 -10z m394 -2 c-3 -4 5 -9 18 -9 17 -1 18 -3 6 -6 -21
-5 -24 -29 -5 -36 7 -3 4 -6 -7 -6 -17 -1 -18 -2 -1 -27 9 -15 13 -24 7 -20
-5 3 -12 -3 -15 -14 -3 -11 0 -23 5 -27 7 -4 8 -1 3 7 -6 9 -4 11 5 5 10 -6
10 -11 -3 -20 -9 -7 -13 -16 -9 -20 4 -5 1 -4 -7 0 -11 6 -13 4 -8 -9 4 -10 3
-15 -3 -11 -15 9 -9 202 6 202 7 0 11 -4 8 -9z m146 -18 c0 -5 -2 -10 -4 -10
-3 0 -8 5 -11 10 -3 6 -1 10 4 10 6 0 11 -4 11 -10z m-543 -30 c-2 -23 -10
-17 -12 10 -1 10 2 17 6 14 4 -2 7 -13 6 -24z m2716 -51 c-6 -21 -7 -22 -14
-3 -4 10 -8 27 -8 37 -1 16 1 17 13 4 9 -9 12 -23 9 -38z m-2713 -14 c0 -8 -4
-15 -10 -15 -5 0 -7 7 -4 15 4 8 8 15 10 15 2 0 4 -7 4 -15z m-3 -75 c-1 -11
-5 -20 -9 -20 -10 0 -10 4 -2 24 8 22 13 20 11 -4z m633 -105 c0 -14 -4 -25
-9 -25 -4 0 -7 -11 -6 -25 2 -14 0 -23 -4 -21 -9 6 -7 58 3 75 7 10 6 12 -4 6
-9 -5 -11 -4 -6 3 12 20 26 13 26 -13z m-562 3 c-2 -6 -11 -13 -19 -16 -11 -3
-11 -1 1 8 12 10 11 11 -8 7 -12 -3 -20 -1 -16 4 8 13 46 11 42 -3z m269 -8
c-1 -11 -4 -20 -7 -20 -3 0 -6 -9 -7 -20 -1 -13 2 -18 9 -14 7 4 8 2 4 -4 -15
-25 -25 -10 -24 33 0 30 5 45 14 45 7 0 12 -9 11 -20z m2243 -64 c0 -3 -4 -8
-10 -11 -5 -3 -10 -1 -10 4 0 6 5 11 10 11 6 0 10 -2 10 -4z m-39 -19 c-6 -8
-8 -17 -4 -21 4 -4 0 -4 -9 -1 -14 5 -15 10 -5 21 16 17 33 18 18 1z m-2224
-44 c-3 -10 -5 -2 -5 17 0 19 2 27 5 18 2 -10 2 -26 0 -35z m-777 -17 c0 -2
-8 -10 -17 -17 -16 -13 -17 -12 -4 4 13 16 21 21 21 13z m790 -10 c0 -3 -4 -8
-10 -11 -5 -3 -10 -1 -10 4 0 6 5 11 10 11 6 0 10 -2 10 -4z m2350 -26 c0 -5
-5 -10 -11 -10 -5 0 -7 5 -4 10 3 6 8 10 11 10 2 0 4 -4 4 -10z m985 -1 c11
-16 1 -19 -13 -3 -7 8 -8 14 -3 14 5 0 13 -5 16 -11z m-4134 -8 c-7 -5 -11
-13 -7 -19 3 -6 2 -13 -2 -16 -5 -3 -8 5 -7 17 3 28 3 27 18 27 9 0 8 -3 -2
-9z m792 -28 c4 -18 3 -33 -1 -33 -4 0 -9 17 -10 37 -3 44 3 42 11 -4z m1074
-38 c1 -30 -1 -55 -5 -55 -6 0 -8 83 -3 105 3 16 6 -2 8 -50z m1288 35 c3 -5
1 -10 -4 -10 -6 0 -11 5 -11 10 0 6 2 10 4 10 3 0 8 -4 11 -10z m726 -24 c5 3
9 1 9 -5 0 -10 -55 -9 -66 2 -4 3 3 5 15 2 12 -2 21 1 22 8 0 9 2 8 6 -1 2 -6
9 -10 14 -6z m-3888 -11 c-3 -9 -8 -14 -10 -11 -3 3 -2 9 2 15 9 16 15 13 8
-4z m802 -51 c-1 -13 3 -24 9 -24 6 0 4 -5 -4 -10 -13 -8 -13 -13 -2 -31 8
-11 9 -18 4 -15 -5 3 -9 -6 -9 -19 0 -14 3 -25 8 -25 5 0 9 -5 9 -11 0 -5 -4
-7 -10 -4 -14 9 -12 -8 3 -24 10 -11 10 -13 0 -7 -7 4 -13 3 -13 -1 0 -5 6
-15 13 -22 7 -8 7 -11 1 -8 -7 4 -11 -3 -11 -18 0 -16 4 -22 11 -18 8 5 8 3 0
-8 -16 -20 -14 -51 3 -45 8 3 11 1 8 -4 -3 -6 -13 -10 -21 -10 -12 0 -14 28
-13 177 0 97 4 171 9 163 4 -7 7 -23 5 -36z m-311 28 c3 -5 -1 -9 -9 -9 -8 0
-12 4 -9 9 3 4 7 8 9 8 2 0 6 -4 9 -8z m1126 -13 c0 -5 -4 -9 -10 -9 -5 0 -10
7 -10 16 0 8 5 12 10 9 6 -3 10 -10 10 -16z m3 -32 c3 -8 2 -20 -3 -26 -5 -9
-7 -4 -7 13 0 29 2 32 10 13z m257 -13 c0 -8 -5 -12 -10 -9 -6 4 -8 11 -5 16
9 14 15 11 15 -7z m-245 -68 c0 -14 -3 -22 -7 -20 -4 3 -7 16 -6 29 3 30 11
23 13 -9z m1869 -70 c-3 -9 -2 -16 4 -16 6 0 12 6 15 13 2 6 7 9 11 6 3 -3 -2
-14 -12 -25 -10 -11 -17 -31 -15 -49 1 -21 0 -26 -7 -15 -5 8 -6 18 -3 24 4 5
-1 7 -11 3 -15 -6 -17 0 -14 52 3 58 3 59 20 41 10 -10 15 -26 12 -34z m540
10 c3 -16 2 -25 -1 -22 -4 4 -9 19 -11 34 -4 35 5 25 12 -12z m-2389 -16 c3
-6 -1 -7 -9 -4 -18 7 -21 14 -7 14 6 0 13 -4 16 -10z m-835 -155 c11 -13 10
-14 -4 -9 -17 7 -23 -11 -6 -21 12 -7 4 -25 -11 -25 -10 0 -13 53 -2 63 9 9 9
9 23 -8z m-913 -42 c1 -22 -1 -24 -8 -10 -6 9 -7 22 -4 27 9 14 10 13 12 -17z
m1087 -28 c-4 -8 -8 -15 -10 -15 -2 0 -4 7 -4 15 0 8 4 15 10 15 5 0 7 -7 4
-15z m-184 -21 c-6 -14 -8 -30 -4 -35 3 -5 0 -9 -6 -9 -7 0 -9 12 -6 33 5 40
4 37 16 37 6 0 6 -9 0 -26z m176 -27 c-3 -13 -8 -49 -12 -80 -7 -60 -18 -77
-37 -58 -8 8 -8 11 0 11 6 0 9 8 6 19 -3 10 0 22 7 26 8 5 8 10 -1 21 -9 11
-8 15 4 20 9 3 14 14 12 25 -3 12 0 17 7 13 7 -5 9 -1 5 9 -4 10 -2 17 4 17 7
0 9 -10 5 -23z m424 -23 c0 -16 -16 -19 -25 -4 -4 6 -11 8 -16 5 -5 -4 -9 -2
-9 3 0 5 11 10 25 10 15 0 25 -6 25 -14z m-1637 -27 c-33 -36 -103 -61 -103
-37 0 6 3 9 8 9 19 -3 33 2 27 11 -3 6 -1 10 4 10 6 0 11 -5 11 -12 0 -7 9 -1
21 13 11 14 27 26 35 26 11 0 11 -4 -3 -20z m1047 -11 c0 -2 -7 -6 -15 -10 -8
-3 -15 -1 -15 4 0 6 7 10 15 10 8 0 15 -2 15 -4z m-10 -63 c0 -7 -4 -13 -9
-13 -5 0 -8 12 -8 26 0 18 2 22 8 13 5 -8 9 -20 9 -26z m2735 22 c13 0 21 -8
23 -22 3 -20 -1 -23 -33 -23 -32 0 -35 2 -26 18 7 13 6 23 -2 32 -10 10 -9 11
3 4 8 -4 24 -8 35 -9z m-3068 -102 c0 -16 -2 -22 -4 -15 -3 6 -9 9 -15 6 -5
-3 -4 3 4 15 7 12 13 21 14 21 1 0 1 -12 1 -27z m3 -43 c0 -5 -4 -10 -10 -10
-5 0 -10 5 -10 10 0 6 5 10 10 10 6 0 10 -4 10 -10z m408 -61 c-1 -17 -4 -25
-8 -18 -7 10 -2 49 5 49 2 0 3 -14 3 -31z m-1 -91 c1 -53 1 -53 -7 -13 -7 34
-4 65 5 65 1 0 2 -24 2 -52z m33 -48 c0 -5 -2 -10 -4 -10 -3 0 -8 5 -11 10 -3
6 -1 10 4 10 6 0 11 -4 11 -10z m80 2 c0 -9 -56 -10 -64 -1 -3 3 10 6 29 7 19
2 35 -1 35 -6z m1110 -3 c13 -9 12 -10 -2 -5 -20 6 -34 -10 -16 -17 7 -3 3 -6
-9 -6 -13 -1 -23 3 -23 8 0 6 -8 10 -17 10 -39 1 -52 5 -47 13 8 12 96 10 114
-3z m1450 5 c0 -8 -19 -13 -24 -6 -3 5 1 9 9 9 8 0 15 -2 15 -3z m750 -94 c0
-28 -3 -30 -35 -30 -19 0 -35 5 -35 11 0 5 5 7 10 4 6 -3 10 0 10 7 0 9 3 9
10 -2 9 -13 10 -13 11 0 1 8 1 19 0 23 -1 5 3 6 9 2 5 -3 10 -1 10 4 0 6 2 11
5 11 3 0 5 -13 5 -30z m-310 -4 c0 -2 -8 -10 -17 -17 -16 -13 -17 -12 -4 4 13
16 21 21 21 13z m96 -18 c2 -3 -18 -5 -45 -5 -27 1 -48 4 -46 7 4 7 83 5 91
-2z m129 1 c3 -3 -6 -5 -19 -5 -14 1 -28 4 -31 7 -3 3 6 5 19 5 14 -1 28 -4
31 -7z m-1088 -5 c-3 -3 -12 -4 -19 -1 -8 3 -5 6 6 6 11 1 17 -2 13 -5z m56
-1 c-7 -2 -21 -2 -30 0 -10 3 -4 5 12 5 17 0 24 -2 18 -5z m114 1 c-3 -3 -12
-4 -19 -1 -8 3 -5 6 6 6 11 1 17 -2 13 -5z m550 0 c-3 -3 -12 -4 -19 -1 -8 3
-5 6 6 6 11 1 17 -2 13 -5z m40 0 c-3 -3 -12 -4 -19 -1 -8 3 -5 6 6 6 11 1 17
-2 13 -5z m56 -1 c-7 -2 -21 -2 -30 0 -10 3 -4 5 12 5 17 0 24 -2 18 -5z m200
0 c-7 -2 -21 -2 -30 0 -10 3 -4 5 12 5 17 0 24 -2 18 -5z"/>
</g>
</svg>
